<svg xmlns="http://www.w3.org/2000/svg" viewBox="0 60 338 230"><title>logo</title><path d="M210.509,226.5H149.944A11.979,11.979,0,0,1,138,214.556V105.066a11.979,11.979,0,0,1,11.944-11.944h60.564l16.261,22.4h77.953a11.979,11.979,0,0,1,11.944,11.944v87.094A11.979,11.979,0,0,1,304.722,226.5H243.691" style="fill:#d2e0f1;stroke:#2ea5ff;stroke-linecap:round;stroke-linejoin:round;stroke-width:9.953574397153417px"/><line x1="227.5" y1="178.5" x2="227.5" y2="265" style="fill:#d2e0f1;stroke:#2ea5ff;stroke-linecap:round;stroke-miterlimit:10;stroke-width:8px"/><line x1="252" y1="242" x2="227.5" y2="266" style="fill:#d2e0f1;stroke:#2ea5ff;stroke-linecap:round;stroke-miterlimit:10;stroke-width:8px"/><line x1="202.5" y1="242" x2="227" y2="266" style="fill:#d2e0f1;stroke:#2ea5ff;stroke-linecap:round;stroke-miterlimit:10;stroke-width:8px"/><path d="M43.924,251.875a27.267,27.267,0,0,0,27.257-27.257V197.361H43.924a27.257,27.257,0,0,0,0,54.514Z" style="fill:#00c67d"/><path d="M16.667,170.1a27.267,27.267,0,0,1,27.257-27.257H71.181v54.514H43.924A27.267,27.267,0,0,1,16.667,170.1Z" style="fill:#905bf8"/><path d="M16.667,115.59A27.267,27.267,0,0,1,43.924,88.333H71.181v54.514H43.924A27.267,27.267,0,0,1,16.667,115.59Z" style="fill:#f43e24"/><path d="M71.181,88.333H98.438a27.257,27.257,0,0,1,0,54.514H71.181Z" style="fill:#ff625a"/><path d="M125.694,170.1a27.257,27.257,0,1,1-27.257-27.257A27.267,27.267,0,0,1,125.694,170.1Z" style="fill:#00b7f9"/></svg>